<svg id="Vector" style="enable-background:new 0 0 595.3 297.6;" version="1.1" viewBox="0 -5 595.3 297.6" xml:space="preserve" xmlns="http://www.w3.org/2000/svg" xmlns:xlink="http://www.w3.org/1999/xlink">
<style type="text/css">
	.st0{stroke:#fff; fill:#fff;}
</style>
<g>
<path class="st0" d="M432,219.5H149.2c-3.6,0-6.5-2.9-6.5-6.5s2.9-6.5,6.5-6.5H432c3.6,0,6.5,2.9,6.5,6.5S435.6,219.5,432,219.5z"></path>
</g>
<g>
<path class="st0" d="M555.2,97.7h-224c-3.6,0-6.5-2.9-6.5-6.5s2.9-6.5,6.5-6.5h224c3.6,0,6.5,2.9,6.5,6.5S558.8,97.7,555.2,97.7z"></path>
</g>
<g>
<circle class="st0" cx="416" cy="109.5" r="7.4"></circle>
</g>
<path class="st0" d="M336.4,119.7c-6.2,0-12,3-16.9,7.4c0.4-2.7-1-5.4-3.5-6.7c-3.2-1.6-7.1-0.3-8.7,2.9l-64.6,128.9
	c-1.6,3.2-0.3,7.1,2.9,8.7c0.9,0.5,1.9,0.7,2.9,0.7c2.4,0,4.7-1.3,5.8-3.6l38-75.8c0.9,6.4,9.3,9.2,14.4,9.2
	c13.6,0,26.6-9.4,32.6-21.4l8.5-17.2l2.9-5.9c1.8-3.7,2.7-7.5,2.7-11C353.4,129.8,350,119.7,336.4,119.7z M338.2,142.7l-10.6,21.4
	c-3.7,7.5-12,14.2-19.7,14.2s-5.3-7.2-3.6-10.6l10.3-20.9c3.7-7.5,13.3-14.2,20-14.2S339.9,139.3,338.2,142.7z"></path>
<g>
</g>
<path class="st0" d="M218.9,123.4c-1.9,3.7-20.1,40.8-20.1,40.8c-3.7,7.5-11.6,14.2-18.2,14.2c-5.7,0-3.3-8.1-1.9-11
	c0.1-0.2,0.2-0.3,0.2-0.5l18-36.4c0.6-1.2,1.1-2.6,1.4-4c0.8-5.5-8.7-10.3-12.4-3c-1.9,3.7-20.1,40.8-20.1,40.8
	c-3.7,7.5-12.8,14.2-19.5,14.2c-5.7,0-2.1-8.1-0.7-11c6-12.1,18.9-38.3,18.9-38.3c1.6-3.2,0.3-7.1-2.9-8.7c-3.2-1.6-7.1-0.3-8.7,2.9
	c0,0-17.6,35.6-21.7,44c-2.9,5.9-2.9,11.9,0,16.6c2.9,4.7,8.4,7.4,15.1,7.4c6.8,0,14.2-3.2,20.5-8.3c2.1,4.6,6.4,8.3,14.3,8.3
	c11.5,0,23.5-9.4,29.4-21.4l19.5-39.5c0.6-1.2,1.1-2.6,1.4-4C232.1,120.8,222.6,116.1,218.9,123.4z"></path>
<g>
</g>
<g>
</g>
<g>
<path class="st0" d="M313.5,261.6c-1,0-2-0.2-2.9-0.7c-3.2-1.6-4.5-5.5-2.9-8.7l74.6-148.4c1-2.1,2.3-4.9,3.7-8.1
		c9.1-20.3,24.4-54.3,47.7-54.3c16.7,0,16.8,12.5,16.8,15.4c0,2.8-0.9,12.3-7.3,12.3c-4.4,0-5.4-2.9-5.4-5.1
		c0-4.3,2.5-10.1-3.7-10.1c-14.9,0-29.3,32-36.1,47.1c-1.5,3.3-2.8,6.2-4,8.6L319.3,258C318.1,260.2,315.9,261.6,313.5,261.6z"></path>
</g>
<path class="st0" d="M295.6,161c-3.6,0-7.1-0.3-8.7,2.9c-2.5,5-8.5,14.3-15.4,14.3c-2.6,0-2.5-3.4,0-8.5
	c0.3-0.7,19.2-38.8,19.2-38.8c1.6-3.2,0.3-7.1-2.9-8.7c-3.2-1.6-7.1-0.3-8.7,2.9c0,0-0.4,0.9-1.2,2.4c-1.5-4.4-5.1-7.9-12-7.9
	c-13.6,0-25.8,9.4-31.8,21.4l-8.5,17.2l-2.9,5.9c-1.8,3.7-2.7,7.5-2.7,11c0,6.1,3.3,16.2,16.9,16.2c7.3,0,13.8-4.1,19.3-9.6
	c1.1,5.9,5.2,9.6,12,9.6C285.7,191.3,298.3,161,295.6,161z M238.7,178.3c-6.7,0-5.3-6.7-3.6-10.1l10.6-21.4
	c3.7-7.5,12-14.2,19.7-14.2c7.7,0,5.3,7.2,3.6,10.6l-10.3,20.9C255,171.7,245.4,178.3,238.7,178.3z"></path>
<g>
<path class="st0" d="M63.4,252.9c-13.6,0-26.1-5.8-33.6-16.3c-11.3-15.6-9.3-38,5.3-61.4C46,157.8,57.9,146,58.4,145.5
		c3-2.9,7.7-2.9,10.6,0.1c2.9,3,2.9,7.7-0.1,10.6c-0.3,0.3-11.3,11.2-21.1,26.9c-11.3,18-13.4,34.3-5.9,44.7
		c6.1,8.4,17.7,11.9,29.7,9c18.8-4.6,32.3-22.7,36.2-48.5c1.4-20.4-5.3-33.4-12.4-47.1c-7.1-13.7-14.4-27.9-12.9-48.6
		c2.6-34.6,22.8-48,31.4-52.1c13.2-6.4,28-5.9,38.6,1.3c9.9,6.7,14.8,18.1,13.8,31.9c-1.6,22-14.4,35.3-14.9,35.9
		c-2.9,3-7.6,3-10.6,0.1c-3-2.9-3-7.6-0.1-10.6c0.1-0.1,9.5-10.1,10.7-26.5C154,36.4,101,47,97.5,93.8c-1.2,16.5,4.6,27.7,11.3,40.6
		c7.4,14.3,15.8,30.6,14,55.4c0,0.2,0,0.4-0.1,0.6c-7.1,47.8-38.2,58.9-47.6,61.1C71.2,252.4,67.2,252.9,63.4,252.9z"></path>
</g>
<g>
</g>
<g>
<path class="st0" d="M434.6,191.3c-7.4,0-13.5-2.3-17.7-6.7c-8.8,4.2-16.8,6.6-22.3,6.6c-0.3,0-0.7,0-1-0.1
		c-8.2-0.5-12.1-4.7-13.8-7.3c-3-4.7-3.2-10.9-0.4-16.8c6.3-13.5,21.3-42.7,21.9-43.9c1.6-3.2,5.6-4.4,8.8-2.8
		c3.2,1.6,4.4,5.6,2.8,8.8c-0.1,0.3-12.1,23.6-19.2,38.2c-3.5,7.3-3.5,10.9,1.7,10.9c2.5,0,9.4-2.2,15.9-5.4
		c-1.5-8.9,1.1-20,7.2-30.5c8.5-14.4,21.1-23,33.5-22.7c5.7,0.1,10.4,2.6,13,6.8c1.7,2.7,3.8,8.6-0.5,17.3
		c-6.3,12.5-20.4,24.9-34.9,33.8c1.3,0.4,2.9,0.7,4.9,0.7c16.8,0,44.6-16.5,67.6-63.2c1.6-3.2,5.5-4.5,8.7-2.9
		c3.2,1.6-17.3,40.3-29.6,53.5C467,181.2,449.5,191.3,434.6,191.3z M436.8,140c-2.8,2.7-5.2,5.9-7,9.1c-3.3,5.6-5.3,11.7-5.8,16.8
		c9.1-5.8,18.2-13.1,24.2-20.6C458.7,132.1,449.8,127.1,436.8,140z"></path>
</g>
<path class="st0" d="M569.9,155.8c-1-2.9-2.2-6-3.5-9.2c-3.5-8.8-7.4-18.7-7.4-27.6c0-3-2-5.6-4.9-6.3c-2.9-0.7-5.9,0.6-7.3,3.3
	c-0.2,0.3-17.5,32.7-36.8,50.9c-9.8,9.2-15.9,11.7-18.6,11.7c-7.4,0,3.5-19.1,8.2-28.8c14.8-30.1,39.6-80.1,40-80.8
	c1.6-3.2,0.3-7.1-2.9-8.7c-3.2-1.6-7.1-0.3-8.7,2.9c-1.8,3.7-44.8,90.4-51.1,103.8c-3.9,8.2-2,24.6,13.3,24.6
	c22.8,0,49-38.7,56.2-49.6c1.5-2.3,3.2-6.9,3.2-6.9s0.3,4.1,1.1,6.6c1.2,3.4,2.5,6.6,3.7,9.7c1.2,3.1,2.4,5.9,3.3,8.6
	c1.5,4.4,2.3,8.7,2.2,12.4c0,18.6-17.7,17.3-17.7,9.2c0-7.3,6.5-10.3,6.5-15.2c0-1.6-0.9-5.2-5.5-5.2c-6.2,0-13,10-13,20.5
	c0.1,24.9,42.7,25.9,42.7-9.4C572.8,167.1,571.8,161.5,569.9,155.8z"></path>
</svg>